<svg xmlns="http://www.w3.org/2000/svg" xmlns:xlink="http://www.w3.org/1999/xlink" width="500" zoomAndPan="magnify" viewBox="0 0 375 374.999991" height="500" preserveAspectRatio="xMidYMid meet" version="1.0"><defs><g/><clipPath id="id1"><path d="M 132.839844 91.273438 L 242.339844 91.273438 L 242.339844 200.773438 L 132.839844 200.773438 Z M 132.839844 91.273438 " clip-rule="nonzero"/></clipPath><clipPath id="id2"><path d="M 174.992188 133.425781 L 199.742188 133.425781 L 199.742188 158.175781 L 174.992188 158.175781 Z M 174.992188 133.425781 " clip-rule="nonzero"/></clipPath></defs><g clip-path="url(#id1)"><path fill="#ffffff" d="M 238.128906 150.234375 C 240.433594 150.234375 242.339844 148.328125 242.339844 146.023438 C 242.339844 143.71875 240.433594 141.8125 238.128906 141.8125 L 216.726562 141.8125 C 216.316406 138.898438 215.460938 136.054688 214.191406 133.390625 L 221.285156 133.390625 C 222.402344 133.390625 223.472656 132.945312 224.261719 132.15625 L 231.449219 124.964844 L 238.128906 124.964844 C 240.433594 124.964844 242.339844 123.058594 242.339844 120.753906 C 242.339844 118.453125 240.433594 116.542969 238.128906 116.542969 L 229.707031 116.542969 C 228.585938 116.542969 227.519531 116.988281 226.730469 117.777344 L 219.539062 124.964844 L 208.648438 124.964844 L 208.648438 114.074219 L 215.835938 106.886719 C 216.628906 106.097656 217.070312 105.027344 217.070312 103.910156 L 217.070312 95.484375 C 217.070312 93.183594 215.164062 91.273438 212.859375 91.273438 C 210.558594 91.273438 208.648438 93.183594 208.648438 95.484375 L 208.648438 102.164062 L 201.460938 109.355469 C 200.667969 110.144531 200.226562 111.210938 200.226562 112.332031 L 200.226562 119.421875 C 197.558594 118.15625 194.714844 117.300781 191.800781 116.886719 L 191.800781 95.484375 C 191.800781 93.183594 189.894531 91.273438 187.589844 91.273438 C 185.289062 91.273438 183.378906 93.183594 183.378906 95.484375 L 183.378906 120.753906 C 183.378906 123.058594 185.289062 124.964844 187.589844 124.964844 C 187.589844 124.964844 187.605469 124.964844 187.605469 124.964844 C 199.15625 124.964844 208.664062 134.476562 208.664062 146.039062 C 208.664062 157.589844 199.15625 167.097656 187.605469 167.097656 C 176.042969 167.097656 166.535156 157.589844 166.535156 146.039062 C 166.535156 140.050781 169.082031 134.328125 173.558594 130.328125 C 173.574219 130.3125 173.589844 130.261719 173.625 130.246094 C 173.835938 130 174.035156 129.738281 174.199219 129.457031 C 174.347656 129.292969 174.460938 129.113281 174.578125 128.914062 C 174.660156 128.683594 174.710938 128.453125 174.757812 128.207031 C 174.839844 127.910156 174.90625 127.613281 174.941406 127.320312 C 174.941406 127.269531 174.957031 127.238281 174.957031 127.203125 L 174.957031 112.332031 C 174.957031 111.210938 174.511719 110.144531 173.722656 109.355469 L 166.535156 102.164062 L 166.535156 95.484375 C 166.535156 93.183594 164.640625 91.273438 162.320312 91.273438 C 160.019531 91.273438 158.109375 93.183594 158.109375 95.484375 L 158.109375 103.910156 C 158.109375 105.027344 158.554688 106.097656 159.34375 106.886719 L 166.535156 114.074219 L 166.535156 124.964844 L 155.640625 124.964844 L 148.453125 117.777344 C 147.664062 116.988281 146.59375 116.542969 145.476562 116.542969 L 137.050781 116.542969 C 134.75 116.542969 132.839844 118.453125 132.839844 120.753906 C 132.839844 123.058594 134.75 124.964844 137.050781 124.964844 L 143.730469 124.964844 L 150.921875 132.15625 C 151.710938 132.945312 152.78125 133.390625 153.898438 133.390625 L 161.003906 133.390625 C 159.738281 136.054688 158.882812 138.898438 158.457031 141.8125 L 137.050781 141.8125 C 134.75 141.8125 132.839844 143.71875 132.839844 146.023438 C 132.839844 148.328125 134.75 150.234375 137.050781 150.234375 L 158.457031 150.234375 C 158.867188 153.148438 159.738281 155.992188 161.003906 158.660156 L 153.898438 158.660156 C 152.78125 158.660156 151.710938 159.101562 150.921875 159.890625 L 143.730469 167.082031 L 137.050781 167.082031 C 134.75 167.082031 132.839844 168.988281 132.839844 171.292969 C 132.839844 173.613281 134.75 175.503906 137.050781 175.503906 L 145.476562 175.503906 C 146.59375 175.503906 147.664062 175.058594 148.453125 174.269531 L 155.640625 167.082031 L 166.535156 167.082031 L 166.535156 177.972656 L 159.34375 185.160156 C 158.554688 185.949219 158.109375 187.019531 158.109375 188.140625 L 158.109375 196.5625 C 158.109375 198.882812 160.019531 200.773438 162.320312 200.773438 C 164.640625 200.773438 166.535156 198.882812 166.535156 196.5625 L 166.535156 189.882812 L 173.722656 182.695312 C 174.511719 181.902344 174.957031 180.835938 174.957031 179.714844 L 174.957031 172.625 C 177.621094 173.890625 180.46875 174.746094 183.378906 175.160156 L 183.378906 196.5625 C 183.378906 198.882812 185.289062 200.773438 187.589844 200.773438 C 189.910156 200.773438 191.800781 198.882812 191.800781 196.5625 L 191.800781 175.160156 C 194.730469 174.746094 197.558594 173.890625 200.226562 172.625 L 200.226562 179.714844 C 200.226562 180.835938 200.667969 181.902344 201.460938 182.695312 L 208.648438 189.882812 L 208.648438 196.5625 C 208.648438 198.882812 210.558594 200.773438 212.859375 200.773438 C 215.179688 200.773438 217.070312 198.882812 217.070312 196.5625 L 217.070312 188.140625 C 217.070312 187.019531 216.628906 185.949219 215.835938 185.160156 L 208.648438 177.972656 L 208.648438 167.082031 L 219.539062 167.082031 L 226.730469 174.269531 C 227.519531 175.058594 228.585938 175.503906 229.707031 175.503906 L 238.128906 175.503906 C 240.449219 175.503906 242.339844 173.613281 242.339844 171.292969 C 242.339844 168.988281 240.449219 167.082031 238.128906 167.082031 L 231.449219 167.082031 L 224.261719 159.890625 C 223.472656 159.101562 222.402344 158.660156 221.285156 158.660156 L 214.191406 158.660156 C 215.460938 155.992188 216.316406 153.148438 216.742188 150.234375 L 238.128906 150.234375 " fill-opacity="1" fill-rule="nonzero"/></g><g clip-path="url(#id2)"><path fill="#ffffff" d="M 187.367188 133.425781 C 180.53125 133.425781 174.992188 138.964844 174.992188 145.800781 C 174.992188 152.632812 180.53125 158.175781 187.367188 158.175781 C 194.199219 158.175781 199.742188 152.632812 199.742188 145.800781 C 199.742188 138.964844 194.199219 133.425781 187.367188 133.425781 " fill-opacity="1" fill-rule="nonzero"/></g><g fill="#ffffff" fill-opacity="1"><g transform="translate(55.652345, 249.459944)"><g><path d="M 23.96875 0 L 23.96875 -23.8125 L 16.03125 -7.640625 L 14.28125 -7.640625 L 6.453125 -23.8125 L 6.453125 0 L 3.890625 0 L 3.890625 -27.03125 L 7.59375 -27.03125 L 15.234375 -11.296875 L 22.828125 -27.03125 L 26.53125 -27.03125 L 26.53125 0 Z M 23.96875 0 "/></g></g></g><g fill="#ffffff" fill-opacity="1"><g transform="translate(86.04, 249.459944)"><g><path d="M 15.15625 0 L 15.15625 -2.96875 C 14.570312 -2.457031 14.003906 -1.984375 13.453125 -1.546875 C 12.910156 -1.117188 12.351562 -0.742188 11.78125 -0.421875 C 11.21875 -0.0976562 10.632812 0.148438 10.03125 0.328125 C 9.425781 0.515625 8.78125 0.609375 8.09375 0.609375 C 7.125 0.609375 6.28125 0.457031 5.5625 0.15625 C 4.851562 -0.132812 4.257812 -0.554688 3.78125 -1.109375 C 3.300781 -1.660156 2.941406 -2.328125 2.703125 -3.109375 C 2.472656 -3.898438 2.359375 -4.785156 2.359375 -5.765625 C 2.359375 -6.828125 2.515625 -7.753906 2.828125 -8.546875 C 3.140625 -9.347656 3.628906 -10.023438 4.296875 -10.578125 C 4.960938 -11.128906 5.8125 -11.566406 6.84375 -11.890625 C 7.882812 -12.222656 9.125 -12.457031 10.5625 -12.59375 L 15.15625 -13.046875 L 15.15625 -14.078125 C 15.15625 -14.941406 15.054688 -15.675781 14.859375 -16.28125 C 14.671875 -16.882812 14.363281 -17.378906 13.9375 -17.765625 C 13.507812 -18.160156 12.96875 -18.445312 12.3125 -18.625 C 11.65625 -18.800781 10.875 -18.890625 9.96875 -18.890625 C 9.195312 -18.890625 8.523438 -18.820312 7.953125 -18.6875 C 7.390625 -18.550781 6.898438 -18.367188 6.484375 -18.140625 C 6.078125 -17.910156 5.738281 -17.644531 5.46875 -17.34375 C 5.195312 -17.039062 4.960938 -16.726562 4.765625 -16.40625 L 2.75 -17.640625 C 3.039062 -18.109375 3.382812 -18.550781 3.78125 -18.96875 C 4.175781 -19.382812 4.660156 -19.75 5.234375 -20.0625 C 5.816406 -20.375 6.492188 -20.617188 7.265625 -20.796875 C 8.046875 -20.984375 8.957031 -21.078125 10 -21.078125 C 11.382812 -21.078125 12.5625 -20.945312 13.53125 -20.6875 C 14.5 -20.425781 15.289062 -20.007812 15.90625 -19.4375 C 16.53125 -18.875 16.976562 -18.140625 17.25 -17.234375 C 17.53125 -16.328125 17.671875 -15.222656 17.671875 -13.921875 L 17.671875 0 Z M 15.15625 -10.953125 L 11.484375 -10.609375 C 10.316406 -10.492188 9.316406 -10.328125 8.484375 -10.109375 C 7.660156 -9.890625 6.988281 -9.59375 6.46875 -9.21875 C 5.945312 -8.851562 5.566406 -8.394531 5.328125 -7.84375 C 5.085938 -7.289062 4.96875 -6.625 4.96875 -5.84375 C 4.96875 -4.351562 5.265625 -3.273438 5.859375 -2.609375 C 6.460938 -1.941406 7.398438 -1.609375 8.671875 -1.609375 C 9.148438 -1.609375 9.617188 -1.675781 10.078125 -1.8125 C 10.546875 -1.957031 11.035156 -2.175781 11.546875 -2.46875 C 12.054688 -2.757812 12.601562 -3.132812 13.1875 -3.59375 C 13.769531 -4.0625 14.425781 -4.609375 15.15625 -5.234375 Z M 15.15625 -10.953125 "/></g></g></g><g fill="#ffffff" fill-opacity="1"><g transform="translate(107.112165, 249.459944)"><g><path d="M 14 -18.015625 C 13.550781 -18.191406 13.054688 -18.28125 12.515625 -18.28125 C 11.890625 -18.28125 11.320312 -18.203125 10.8125 -18.046875 C 10.300781 -17.890625 9.796875 -17.65625 9.296875 -17.34375 C 8.804688 -17.03125 8.300781 -16.640625 7.78125 -16.171875 C 7.269531 -15.710938 6.703125 -15.171875 6.078125 -14.546875 L 6.078125 0 L 3.5625 0 L 3.5625 -20.484375 L 6.078125 -20.484375 L 6.078125 -16.953125 C 6.660156 -17.535156 7.210938 -18.066406 7.734375 -18.546875 C 8.265625 -19.023438 8.796875 -19.425781 9.328125 -19.75 C 9.859375 -20.082031 10.390625 -20.335938 10.921875 -20.515625 C 11.460938 -20.703125 12.035156 -20.796875 12.640625 -20.796875 C 13.015625 -20.796875 13.359375 -20.765625 13.671875 -20.703125 C 13.984375 -20.640625 14.273438 -20.535156 14.546875 -20.390625 Z M 14 -18.015625 "/></g></g></g><g fill="#ffffff" fill-opacity="1"><g transform="translate(122.677055, 249.459944)"><g><path d="M 18.09375 -3.28125 C 17.757812 -2.664062 17.378906 -2.117188 16.953125 -1.640625 C 16.523438 -1.160156 16.023438 -0.753906 15.453125 -0.421875 C 14.878906 -0.0859375 14.226562 0.164062 13.5 0.34375 C 12.78125 0.519531 11.972656 0.609375 11.078125 0.609375 C 9.472656 0.609375 8.125 0.335938 7.03125 -0.203125 C 5.945312 -0.753906 5.070312 -1.507812 4.40625 -2.46875 C 3.738281 -3.425781 3.253906 -4.5625 2.953125 -5.875 C 2.660156 -7.195312 2.515625 -8.625 2.515625 -10.15625 C 2.515625 -11.820312 2.675781 -13.328125 3 -14.671875 C 3.320312 -16.023438 3.820312 -17.171875 4.5 -18.109375 C 5.1875 -19.054688 6.066406 -19.785156 7.140625 -20.296875 C 8.210938 -20.816406 9.507812 -21.078125 11.03125 -21.078125 C 12.644531 -21.078125 13.992188 -20.753906 15.078125 -20.109375 C 16.171875 -19.472656 17.085938 -18.492188 17.828125 -17.171875 L 15.765625 -15.921875 C 15.492188 -16.429688 15.203125 -16.867188 14.890625 -17.234375 C 14.578125 -17.609375 14.226562 -17.914062 13.84375 -18.15625 C 13.457031 -18.394531 13.03125 -18.578125 12.5625 -18.703125 C 12.09375 -18.828125 11.554688 -18.890625 10.953125 -18.890625 C 8.910156 -18.890625 7.425781 -18.144531 6.5 -16.65625 C 5.582031 -15.175781 5.125 -12.984375 5.125 -10.078125 C 5.125 -8.804688 5.222656 -7.648438 5.421875 -6.609375 C 5.617188 -5.566406 5.945312 -4.671875 6.40625 -3.921875 C 6.875 -3.171875 7.488281 -2.585938 8.25 -2.171875 C 9.007812 -1.765625 9.953125 -1.5625 11.078125 -1.5625 C 11.710938 -1.5625 12.273438 -1.628906 12.765625 -1.765625 C 13.253906 -1.898438 13.691406 -2.097656 14.078125 -2.359375 C 14.472656 -2.617188 14.828125 -2.9375 15.140625 -3.3125 C 15.453125 -3.6875 15.75 -4.097656 16.03125 -4.546875 Z M 18.09375 -3.28125 "/></g></g></g><g fill="#ffffff" fill-opacity="1"><g transform="translate(142.518867, 249.459944)"><g><path d="M 19.765625 -10.203125 C 19.765625 -8.566406 19.609375 -7.085938 19.296875 -5.765625 C 18.984375 -4.453125 18.484375 -3.316406 17.796875 -2.359375 C 17.109375 -1.410156 16.21875 -0.675781 15.125 -0.15625 C 14.03125 0.351562 12.707031 0.609375 11.15625 0.609375 C 9.601562 0.609375 8.28125 0.351562 7.1875 -0.15625 C 6.09375 -0.675781 5.203125 -1.410156 4.515625 -2.359375 C 3.828125 -3.316406 3.320312 -4.453125 3 -5.765625 C 2.675781 -7.085938 2.515625 -8.566406 2.515625 -10.203125 C 2.515625 -11.785156 2.671875 -13.242188 2.984375 -14.578125 C 3.296875 -15.910156 3.796875 -17.054688 4.484375 -18.015625 C 5.179688 -18.984375 6.078125 -19.734375 7.171875 -20.265625 C 8.265625 -20.804688 9.59375 -21.078125 11.15625 -21.078125 C 12.675781 -21.078125 13.976562 -20.816406 15.0625 -20.296875 C 16.15625 -19.785156 17.050781 -19.054688 17.75 -18.109375 C 18.445312 -17.160156 18.957031 -16.015625 19.28125 -14.671875 C 19.601562 -13.335938 19.765625 -11.847656 19.765625 -10.203125 Z M 17.125 -10.203125 C 17.125 -11.578125 17.019531 -12.804688 16.8125 -13.890625 C 16.601562 -14.972656 16.265625 -15.882812 15.796875 -16.625 C 15.328125 -17.363281 14.710938 -17.925781 13.953125 -18.3125 C 13.191406 -18.695312 12.257812 -18.890625 11.15625 -18.890625 C 10.03125 -18.890625 9.082031 -18.691406 8.3125 -18.296875 C 7.550781 -17.898438 6.929688 -17.328125 6.453125 -16.578125 C 5.984375 -15.828125 5.644531 -14.914062 5.4375 -13.84375 C 5.226562 -12.769531 5.125 -11.554688 5.125 -10.203125 C 5.125 -8.847656 5.226562 -7.632812 5.4375 -6.5625 C 5.65625 -5.5 6 -4.59375 6.46875 -3.84375 C 6.945312 -3.101562 7.570312 -2.535156 8.34375 -2.140625 C 9.113281 -1.753906 10.050781 -1.5625 11.15625 -1.5625 C 12.238281 -1.5625 13.160156 -1.753906 13.921875 -2.140625 C 14.679688 -2.523438 15.296875 -3.085938 15.765625 -3.828125 C 16.242188 -4.566406 16.585938 -5.46875 16.796875 -6.53125 C 17.015625 -7.601562 17.125 -8.828125 17.125 -10.203125 Z M 17.125 -10.203125 "/></g></g></g><g fill="#ffffff" fill-opacity="1"><g transform="translate(164.801851, 249.459944)"><g><path d="M 16.71875 -5.234375 C 16.71875 -4.273438 16.550781 -3.429688 16.21875 -2.703125 C 15.882812 -1.972656 15.398438 -1.363281 14.765625 -0.875 C 14.140625 -0.382812 13.375 -0.015625 12.46875 0.234375 C 11.5625 0.484375 10.535156 0.609375 9.390625 0.609375 C 8.335938 0.609375 7.414062 0.492188 6.625 0.265625 C 5.832031 0.0351562 5.144531 -0.253906 4.5625 -0.609375 C 3.976562 -0.960938 3.5 -1.347656 3.125 -1.765625 C 2.757812 -2.191406 2.476562 -2.609375 2.28125 -3.015625 L 4.3125 -4.28125 C 4.769531 -3.457031 5.410156 -2.796875 6.234375 -2.296875 C 7.066406 -1.804688 8.132812 -1.5625 9.4375 -1.5625 C 10.113281 -1.5625 10.742188 -1.613281 11.328125 -1.71875 C 11.910156 -1.832031 12.414062 -2.023438 12.84375 -2.296875 C 13.28125 -2.578125 13.617188 -2.945312 13.859375 -3.40625 C 14.109375 -3.875 14.234375 -4.457031 14.234375 -5.15625 C 14.234375 -5.707031 14.15625 -6.179688 14 -6.578125 C 13.84375 -6.972656 13.566406 -7.320312 13.171875 -7.625 C 12.773438 -7.9375 12.238281 -8.210938 11.5625 -8.453125 C 10.882812 -8.703125 10.019531 -8.960938 8.96875 -9.234375 C 7.875 -9.523438 6.929688 -9.832031 6.140625 -10.15625 C 5.359375 -10.476562 4.707031 -10.867188 4.1875 -11.328125 C 3.675781 -11.796875 3.296875 -12.351562 3.046875 -13 C 2.796875 -13.644531 2.671875 -14.429688 2.671875 -15.359375 C 2.671875 -16.109375 2.8125 -16.832031 3.09375 -17.53125 C 3.375 -18.226562 3.800781 -18.835938 4.375 -19.359375 C 4.957031 -19.878906 5.6875 -20.296875 6.5625 -20.609375 C 7.4375 -20.921875 8.46875 -21.078125 9.65625 -21.078125 C 10.550781 -21.078125 11.351562 -20.976562 12.0625 -20.78125 C 12.769531 -20.582031 13.394531 -20.316406 13.9375 -19.984375 C 14.488281 -19.660156 14.957031 -19.273438 15.34375 -18.828125 C 15.738281 -18.390625 16.066406 -17.925781 16.328125 -17.4375 L 14.28125 -16.234375 C 14.082031 -16.597656 13.84375 -16.941406 13.5625 -17.265625 C 13.28125 -17.585938 12.953125 -17.867188 12.578125 -18.109375 C 12.210938 -18.359375 11.789062 -18.550781 11.3125 -18.6875 C 10.832031 -18.820312 10.28125 -18.890625 9.65625 -18.890625 C 8.257812 -18.890625 7.160156 -18.582031 6.359375 -17.96875 C 5.554688 -17.351562 5.15625 -16.492188 5.15625 -15.390625 C 5.15625 -14.859375 5.226562 -14.398438 5.375 -14.015625 C 5.519531 -13.640625 5.757812 -13.3125 6.09375 -13.03125 C 6.4375 -12.757812 6.894531 -12.507812 7.46875 -12.28125 C 8.050781 -12.0625 8.78125 -11.835938 9.65625 -11.609375 C 10.96875 -11.253906 12.078125 -10.894531 12.984375 -10.53125 C 13.890625 -10.164062 14.617188 -9.738281 15.171875 -9.25 C 15.722656 -8.769531 16.117188 -8.207031 16.359375 -7.5625 C 16.597656 -6.925781 16.71875 -6.148438 16.71875 -5.234375 Z M 16.71875 -5.234375 "/></g></g></g><g fill="#ffffff" fill-opacity="1"><g transform="translate(183.803906, 249.459944)"><g/></g></g><g fill="#ffffff" fill-opacity="1"><g transform="translate(194.330227, 249.459944)"><g><path d="M 1.234375 0 L 10.609375 -27.03125 L 14 -27.03125 L 23.4375 0 L 20.5625 0 L 17.9375 -7.796875 L 6.640625 -7.796875 L 4 0 Z M 7.4375 -10.203125 L 17.078125 -10.203125 L 12.25 -24.46875 Z M 7.4375 -10.203125 "/></g></g></g><g fill="#ffffff" fill-opacity="1"><g transform="translate(219.015314, 249.459944)"><g><path d="M 16.109375 0 L 16.109375 -3.25 C 15.535156 -2.695312 14.953125 -2.179688 14.359375 -1.703125 C 13.773438 -1.234375 13.175781 -0.828125 12.5625 -0.484375 C 11.957031 -0.148438 11.351562 0.113281 10.75 0.3125 C 10.144531 0.507812 9.535156 0.609375 8.921875 0.609375 C 7.816406 0.609375 6.910156 0.441406 6.203125 0.109375 C 5.492188 -0.210938 4.929688 -0.6875 4.515625 -1.3125 C 4.097656 -1.945312 3.804688 -2.722656 3.640625 -3.640625 C 3.484375 -4.554688 3.40625 -5.609375 3.40625 -6.796875 L 3.40625 -20.484375 L 5.921875 -20.484375 L 5.921875 -7.71875 C 5.921875 -6.570312 5.96875 -5.617188 6.0625 -4.859375 C 6.164062 -4.097656 6.34375 -3.484375 6.59375 -3.015625 C 6.84375 -2.554688 7.1875 -2.234375 7.625 -2.046875 C 8.070312 -1.859375 8.632812 -1.765625 9.3125 -1.765625 C 10.238281 -1.765625 11.285156 -2.101562 12.453125 -2.78125 C 13.628906 -3.457031 14.847656 -4.398438 16.109375 -5.609375 L 16.109375 -20.484375 L 18.640625 -20.484375 L 18.640625 0 Z M 16.109375 0 "/></g></g></g><g fill="#ffffff" fill-opacity="1"><g transform="translate(241.220181, 249.459944)"><g><path d="M 14 -18.015625 C 13.550781 -18.191406 13.054688 -18.28125 12.515625 -18.28125 C 11.890625 -18.28125 11.320312 -18.203125 10.8125 -18.046875 C 10.300781 -17.890625 9.796875 -17.65625 9.296875 -17.34375 C 8.804688 -17.03125 8.300781 -16.640625 7.78125 -16.171875 C 7.269531 -15.710938 6.703125 -15.171875 6.078125 -14.546875 L 6.078125 0 L 3.5625 0 L 3.5625 -20.484375 L 6.078125 -20.484375 L 6.078125 -16.953125 C 6.660156 -17.535156 7.210938 -18.066406 7.734375 -18.546875 C 8.265625 -19.023438 8.796875 -19.425781 9.328125 -19.75 C 9.859375 -20.082031 10.390625 -20.335938 10.921875 -20.515625 C 11.460938 -20.703125 12.035156 -20.796875 12.640625 -20.796875 C 13.015625 -20.796875 13.359375 -20.765625 13.671875 -20.703125 C 13.984375 -20.640625 14.273438 -20.535156 14.546875 -20.390625 Z M 14 -18.015625 "/></g></g></g><g fill="#ffffff" fill-opacity="1"><g transform="translate(256.785083, 249.459944)"><g><path d="M 5.125 -10.234375 C 5.125 -8.734375 5.21875 -7.4375 5.40625 -6.34375 C 5.59375 -5.25 5.910156 -4.347656 6.359375 -3.640625 C 6.804688 -2.929688 7.398438 -2.40625 8.140625 -2.0625 C 8.890625 -1.726562 9.816406 -1.5625 10.921875 -1.5625 C 11.460938 -1.5625 11.960938 -1.609375 12.421875 -1.703125 C 12.878906 -1.804688 13.304688 -1.972656 13.703125 -2.203125 C 14.097656 -2.429688 14.476562 -2.722656 14.84375 -3.078125 C 15.207031 -3.429688 15.566406 -3.867188 15.921875 -4.390625 L 17.9375 -3.09375 C 17.570312 -2.5 17.171875 -1.972656 16.734375 -1.515625 C 16.296875 -1.066406 15.789062 -0.6875 15.21875 -0.375 C 14.65625 -0.0625 14.007812 0.175781 13.28125 0.34375 C 12.5625 0.519531 11.734375 0.609375 10.796875 0.609375 C 9.441406 0.609375 8.25 0.410156 7.21875 0.015625 C 6.195312 -0.367188 5.335938 -0.988281 4.640625 -1.84375 C 3.941406 -2.695312 3.410156 -3.800781 3.046875 -5.15625 C 2.691406 -6.507812 2.515625 -8.148438 2.515625 -10.078125 C 2.515625 -11.804688 2.664062 -13.351562 2.96875 -14.71875 C 3.269531 -16.082031 3.75 -17.234375 4.40625 -18.171875 C 5.0625 -19.117188 5.910156 -19.835938 6.953125 -20.328125 C 8.003906 -20.828125 9.285156 -21.078125 10.796875 -21.078125 C 12.128906 -21.078125 13.269531 -20.867188 14.21875 -20.453125 C 15.164062 -20.035156 15.941406 -19.429688 16.546875 -18.640625 C 17.160156 -17.859375 17.609375 -16.894531 17.890625 -15.75 C 18.179688 -14.613281 18.328125 -13.320312 18.328125 -11.875 L 18.328125 -10.234375 Z M 15.84375 -12.28125 C 15.800781 -14.59375 15.367188 -16.285156 14.546875 -17.359375 C 13.734375 -18.429688 12.457031 -18.96875 10.71875 -18.96875 C 9.820312 -18.96875 9.046875 -18.835938 8.390625 -18.578125 C 7.734375 -18.316406 7.179688 -17.910156 6.734375 -17.359375 C 6.285156 -16.816406 5.929688 -16.125 5.671875 -15.28125 C 5.421875 -14.445312 5.25 -13.445312 5.15625 -12.28125 Z M 10.921875 -23.59375 L 8.890625 -23.59375 L 12.515625 -30.640625 L 16 -30.640625 Z M 10.921875 -23.59375 "/></g></g></g><g fill="#ffffff" fill-opacity="1"><g transform="translate(277.310426, 249.459944)"><g><path d="M 3.8125 0 L 3.8125 -29.078125 L 6.328125 -29.078125 L 6.328125 0 Z M 3.8125 0 "/></g></g></g><g fill="#ffffff" fill-opacity="1"><g transform="translate(287.426637, 249.459944)"><g><path d="M 6.609375 -25.484375 C 6.609375 -24.828125 6.46875 -24.375 6.1875 -24.125 C 5.90625 -23.882812 5.445312 -23.765625 4.8125 -23.765625 C 4.144531 -23.765625 3.679688 -23.914062 3.421875 -24.21875 C 3.171875 -24.519531 3.046875 -24.941406 3.046875 -25.484375 C 3.046875 -26.078125 3.175781 -26.503906 3.4375 -26.765625 C 3.695312 -27.035156 4.15625 -27.171875 4.8125 -27.171875 C 5.46875 -27.171875 5.929688 -27.039062 6.203125 -26.78125 C 6.472656 -26.519531 6.609375 -26.085938 6.609375 -25.484375 Z M 3.5625 0 L 3.5625 -20.484375 L 6.078125 -20.484375 L 6.078125 0 Z M 3.5625 0 "/></g></g></g><g fill="#ffffff" fill-opacity="1"><g transform="translate(297.074143, 249.459944)"><g><path d="M 19.765625 -10.203125 C 19.765625 -8.566406 19.609375 -7.085938 19.296875 -5.765625 C 18.984375 -4.453125 18.484375 -3.316406 17.796875 -2.359375 C 17.109375 -1.410156 16.21875 -0.675781 15.125 -0.15625 C 14.03125 0.351562 12.707031 0.609375 11.15625 0.609375 C 9.601562 0.609375 8.28125 0.351562 7.1875 -0.15625 C 6.09375 -0.675781 5.203125 -1.410156 4.515625 -2.359375 C 3.828125 -3.316406 3.320312 -4.453125 3 -5.765625 C 2.675781 -7.085938 2.515625 -8.566406 2.515625 -10.203125 C 2.515625 -11.785156 2.671875 -13.242188 2.984375 -14.578125 C 3.296875 -15.910156 3.796875 -17.054688 4.484375 -18.015625 C 5.179688 -18.984375 6.078125 -19.734375 7.171875 -20.265625 C 8.265625 -20.804688 9.59375 -21.078125 11.15625 -21.078125 C 12.675781 -21.078125 13.976562 -20.816406 15.0625 -20.296875 C 16.15625 -19.785156 17.050781 -19.054688 17.75 -18.109375 C 18.445312 -17.160156 18.957031 -16.015625 19.28125 -14.671875 C 19.601562 -13.335938 19.765625 -11.847656 19.765625 -10.203125 Z M 17.125 -10.203125 C 17.125 -11.578125 17.019531 -12.804688 16.8125 -13.890625 C 16.601562 -14.972656 16.265625 -15.882812 15.796875 -16.625 C 15.328125 -17.363281 14.710938 -17.925781 13.953125 -18.3125 C 13.191406 -18.695312 12.257812 -18.890625 11.15625 -18.890625 C 10.03125 -18.890625 9.082031 -18.691406 8.3125 -18.296875 C 7.550781 -17.898438 6.929688 -17.328125 6.453125 -16.578125 C 5.984375 -15.828125 5.644531 -14.914062 5.4375 -13.84375 C 5.226562 -12.769531 5.125 -11.554688 5.125 -10.203125 C 5.125 -8.847656 5.226562 -7.632812 5.4375 -6.5625 C 5.65625 -5.5 6 -4.59375 6.46875 -3.84375 C 6.945312 -3.101562 7.570312 -2.535156 8.34375 -2.140625 C 9.113281 -1.753906 10.050781 -1.5625 11.15625 -1.5625 C 12.238281 -1.5625 13.160156 -1.753906 13.921875 -2.140625 C 14.679688 -2.523438 15.296875 -3.085938 15.765625 -3.828125 C 16.242188 -4.566406 16.585938 -5.46875 16.796875 -6.53125 C 17.015625 -7.601562 17.125 -8.828125 17.125 -10.203125 Z M 17.125 -10.203125 "/></g></g></g></svg>